<svg width="561" height="460" viewBox="0 0 561 460" fill="none" xmlns="http://www.w3.org/2000/svg">
<g clip-path="url(#clip0)">
<path d="M430.399 152.876C430.399 152.876 450.333 147.434 461.296 157.411C472.26 167.387 447.343 190.06 447.343 190.06L430.399 152.876Z" fill="#2F2E41"/>
<path d="M409.785 283.005C410.185 281.759 410.348 280.424 410.265 279.094C410.182 277.765 409.853 276.473 409.303 275.31C408.753 274.147 407.994 273.141 407.08 272.363C406.166 271.585 405.119 271.054 404.013 270.807L399.985 238.751L389.399 249.992L394.847 278.709C394.62 280.938 395.091 283.188 396.171 285.032C397.251 286.877 398.864 288.188 400.705 288.718C402.547 289.247 404.488 288.958 406.161 287.906C407.835 286.853 409.124 285.109 409.785 283.005Z" fill="#FFB8B8"/>
<path d="M451.512 449.418L442.147 448.681L440.087 405.539L453.909 406.625L451.512 449.418Z" fill="#FFB8B8"/>
<path d="M435.25 445.234H453.351V458.735H423.854C423.854 456.962 424.148 455.207 424.721 453.569C425.294 451.93 426.133 450.442 427.192 449.188C428.25 447.935 429.506 446.94 430.889 446.262C432.272 445.583 433.754 445.234 435.25 445.234Z" fill="#2F2E41"/>
<path d="M435.327 434.059L426.522 437.91L409.796 399.509L422.791 393.826L435.327 434.059Z" fill="#FFB8B8"/>
<path d="M419.304 437.679L436.285 430.254L440.232 442.92L412.559 455.021C412.041 453.357 411.804 451.589 411.863 449.818C411.921 448.046 412.274 446.305 412.9 444.695C413.527 443.085 414.414 441.636 415.513 440.433C416.612 439.229 417.9 438.293 419.304 437.679Z" fill="#2F2E41"/>
<path d="M409.726 268.317C409.726 268.317 400.241 274.367 403.16 298.567L406.078 390.18L422.2 431.944L436.061 427.623L427.235 393.637L438.908 334.002L440.439 442.316L453.571 444.908L472.467 264.86L448.392 251.896L409.726 268.317Z" fill="#2F2E41"/>
<path d="M443.625 142.594C454.009 142.594 462.428 132.621 462.428 120.319C462.428 108.017 454.009 98.0439 443.625 98.0439C433.24 98.0439 424.822 108.017 424.822 120.319C424.822 132.621 433.24 142.594 443.625 142.594Z" fill="#FFB8B8"/>
<path d="M410.43 270.981C409.156 271.076 407.878 270.9 406.657 270.463L406.389 270.326L406.429 269.983C406.48 269.544 411.489 225.909 408.636 216.615C406.186 208.631 401.146 181.675 399.661 173.603C399.488 172.682 399.571 171.72 399.898 170.859C400.225 169.999 400.779 169.287 401.476 168.83L428.683 150.766C429.801 150.02 431.119 149.816 432.361 150.196C433.603 150.576 434.673 151.511 435.346 152.805L442.262 166.039L453.056 153.25C453.883 152.269 454.975 151.664 456.141 151.543C457.307 151.422 458.471 151.793 459.429 152.589L482.186 171.461C483.169 172.268 483.891 173.449 484.232 174.807C484.573 176.166 484.513 177.622 484.061 178.935C479.719 191.653 469.935 225.481 472.848 264.82L472.895 265.46L472.371 265.299C472.174 265.238 452.532 259.361 432.447 266.16C420.761 270.115 414.057 270.981 410.43 270.981Z" fill="#B2DFFB"/>
<path d="M402.414 169.331C401.612 169.195 400.795 169.41 400.117 169.936C399.439 170.461 398.946 171.261 398.73 172.187L386.38 225.018L389.298 256.996L403.16 254.403L401.701 231.932L411.914 203.411L405.172 172.26C405.008 171.503 404.659 170.821 404.168 170.3C403.677 169.778 403.067 169.441 402.414 169.331Z" fill="#B2DFFB"/>
<path d="M458.164 89.0501C456.911 86.5289 455.093 84.4672 452.913 83.0927C450.732 81.7183 448.273 81.0845 445.807 81.2613C443.228 81.6445 440.712 82.479 438.34 83.7378L426.048 89.4181C422.867 90.8879 419.384 92.6883 418.003 96.3877C416.722 99.8212 417.678 103.786 418.646 107.361L423.245 124.353C423.754 120.507 424.628 116.742 425.851 113.129C427.186 109.576 429.299 106.3 432.22 104.525C435.413 102.584 439.176 102.625 442.761 102.829C447.837 103.118 453.356 103.883 456.963 108.125C458.877 110.534 460.175 113.537 460.706 116.786C461.228 120.017 461.491 123.299 461.491 126.589C463.573 122.35 465.326 117.896 466.73 113.283C467.885 109.848 468.543 106.206 468.677 102.512C468.797 98.7862 467.754 95.1385 465.746 92.2672C463.669 89.5177 460.285 88.0333 457.31 89.1219" fill="#2F2E41"/>
<path d="M468.621 295.703C468.222 294.456 468.058 293.121 468.141 291.791C468.225 290.462 468.553 289.17 469.103 288.007C469.654 286.844 470.413 285.838 471.327 285.06C472.241 284.282 473.287 283.751 474.393 283.504L478.422 251.448L489.008 262.689L483.56 291.407C483.786 293.635 483.315 295.885 482.236 297.73C481.156 299.574 479.542 300.886 477.701 301.415C475.86 301.945 473.918 301.655 472.245 300.603C470.572 299.55 469.282 297.806 468.621 295.703H468.621Z" fill="#FFB8B8"/>
<path d="M481.7 171.527C482.805 171.745 483.813 172.404 484.558 173.395C485.303 174.386 485.74 175.648 485.796 176.974L489.976 276.01H474.656L469.549 223.289L476.048 176.323C476.152 175.568 476.381 174.845 476.722 174.195C477.063 173.545 477.509 172.981 478.034 172.536C478.559 172.09 479.153 171.772 479.782 171.599C480.411 171.425 481.063 171.401 481.7 171.527Z" fill="#B2DFFB"/>
<path d="M513.349 458.697C515.258 434.343 520.53 410.526 528.954 388.197C531.303 381.983 533.887 375.905 536.708 369.965C537.432 368.437 535.449 367.063 534.725 368.592C524.467 390.228 517.28 413.715 513.453 438.113C512.388 444.926 511.588 451.788 511.052 458.697C510.916 460.44 513.214 460.429 513.349 458.697H513.349Z" fill="#B2DFFB"/>
<path d="M542.27 374.329C550.303 374.329 556.816 366.614 556.816 357.097C556.816 347.58 550.303 339.865 542.27 339.865C534.237 339.865 527.725 347.58 527.725 357.097C527.725 366.614 534.237 374.329 542.27 374.329Z" fill="#B2DFFB"/>
<path d="M514.837 459.155C516.075 443.355 519.495 427.904 524.961 413.418C526.484 409.387 528.161 405.444 529.991 401.59C530.082 401.389 530.105 401.153 530.052 400.932C530 400.712 529.878 400.524 529.711 400.408C529.544 400.293 529.346 400.258 529.158 400.313C528.97 400.367 528.807 400.506 528.704 400.699C522.049 414.736 517.387 429.973 514.904 445.801C514.213 450.221 513.694 454.672 513.347 459.155C513.258 460.285 514.749 460.278 514.837 459.155Z" fill="#B2DFFB"/>
<path d="M533.599 404.421C538.811 404.421 543.036 399.416 543.036 393.242C543.036 387.068 538.811 382.063 533.599 382.063C528.388 382.063 524.163 387.068 524.163 393.242C524.163 399.416 528.388 404.421 533.599 404.421Z" fill="#B2DFFB"/>
<path d="M512.956 458.099C505.73 444.74 500.405 430.064 497.193 414.66C496.301 410.371 495.576 406.041 495.018 401.669C494.986 401.443 494.881 401.241 494.725 401.105C494.57 400.97 494.376 400.911 494.184 400.941C493.992 400.972 493.818 401.089 493.698 401.269C493.579 401.448 493.522 401.676 493.541 401.904C495.582 417.821 499.816 433.232 506.076 447.521C507.826 451.509 509.728 455.397 511.781 459.185C512.299 460.141 513.47 459.049 512.956 458.099V458.099Z" fill="#B2DFFB"/>
<path d="M493.529 403.636C498.741 403.636 502.966 398.631 502.966 392.457C502.966 386.283 498.741 381.278 493.529 381.278C488.318 381.278 484.093 386.283 484.093 392.457C484.093 398.631 488.318 403.636 493.529 403.636Z" fill="#B2DFFB"/>
<path d="M560.088 459.805H314.886C314.644 459.805 314.412 459.691 314.241 459.488C314.071 459.286 313.974 459.011 313.974 458.725C313.974 458.438 314.071 458.164 314.241 457.961C314.412 457.759 314.644 457.645 314.886 457.645H560.088C560.208 457.644 560.327 457.672 560.438 457.726C560.549 457.78 560.65 457.86 560.735 457.96C560.82 458.06 560.887 458.179 560.933 458.311C560.979 458.442 561.003 458.583 561.003 458.725C561.003 458.867 560.979 459.007 560.933 459.139C560.887 459.27 560.82 459.389 560.735 459.489C560.65 459.59 560.549 459.669 560.438 459.723C560.327 459.777 560.208 459.805 560.088 459.805Z" fill="#3F3D56"/>
<path d="M320.344 195.206H165.06C162.88 195.203 160.791 194.176 159.249 192.35C157.708 190.524 156.841 188.049 156.839 185.467V151.921C156.841 149.339 157.708 146.863 159.249 145.038C160.791 143.212 162.88 142.185 165.06 142.182H320.344C322.523 142.185 324.613 143.212 326.154 145.038C327.695 146.863 328.562 149.339 328.565 151.921V185.467C328.562 188.049 327.695 190.524 326.154 192.35C324.613 194.176 322.523 195.203 320.344 195.206ZM165.06 144.346C163.364 144.348 161.739 145.147 160.54 146.567C159.342 147.987 158.667 149.913 158.666 151.921V185.467C158.667 187.475 159.342 189.401 160.54 190.821C161.739 192.241 163.364 193.039 165.06 193.042H320.344C322.039 193.039 323.664 192.241 324.863 190.82C326.062 189.4 326.736 187.475 326.738 185.467V151.921C326.736 149.913 326.062 147.987 324.863 146.567C323.664 145.147 322.039 144.348 320.344 144.346H165.06Z" fill="#3F3D56"/>
<path d="M182.531 161.66C181.751 161.659 180.978 161.84 180.257 162.193C179.536 162.546 178.88 163.064 178.328 163.717C177.776 164.371 177.338 165.146 177.039 166C176.741 166.854 176.587 167.769 176.587 168.694C176.587 169.618 176.741 170.533 177.039 171.387C177.338 172.241 177.776 173.017 178.328 173.67C178.88 174.324 179.536 174.842 180.257 175.195C180.978 175.548 181.751 175.729 182.531 175.728H283.922C285.496 175.726 287.004 174.984 288.116 173.665C289.228 172.346 289.853 170.558 289.853 168.694C289.853 166.83 289.228 165.042 288.116 163.723C287.004 162.404 285.496 161.662 283.922 161.66H182.531Z" fill="#B2DFFB"/>
<path d="M300.598 164.175C300.518 164.175 300.439 164.2 300.37 164.248C300.3 164.295 300.243 164.364 300.202 164.446C300.162 164.528 300.141 164.621 300.141 164.716C300.141 164.811 300.162 164.905 300.202 164.987L304.079 172.942C304.119 173.024 304.177 173.092 304.246 173.14C304.316 173.187 304.395 173.212 304.475 173.212C304.555 173.212 304.634 173.187 304.703 173.14C304.773 173.092 304.83 173.024 304.87 172.942L308.747 164.987C308.787 164.905 308.808 164.811 308.808 164.716C308.808 164.621 308.787 164.528 308.747 164.446C308.707 164.364 308.649 164.295 308.58 164.248C308.51 164.2 308.432 164.175 308.351 164.175H300.598Z" fill="#6C63FF"/>
<path d="M329.626 126.55H157.087C155.509 126.548 153.997 125.82 152.882 124.526C151.766 123.232 151.139 121.478 151.137 119.647V6.90273C151.139 5.07267 151.766 3.31817 152.882 2.02411C153.997 0.730059 155.509 0.00212145 157.087 0H329.626C331.203 0.00206203 332.715 0.729977 333.831 2.02404C334.946 3.31811 335.574 5.07266 335.575 6.90274V119.647C335.574 121.478 334.946 123.232 333.831 124.526C332.715 125.82 331.203 126.548 329.626 126.55ZM157.087 1.53394C155.86 1.53554 154.684 2.10168 153.816 3.10818C152.948 4.11468 152.461 5.47933 152.459 6.90273V119.647C152.461 121.071 152.948 122.436 153.816 123.442C154.684 124.449 155.86 125.015 157.087 125.016H329.626C330.853 125.015 332.029 124.448 332.896 123.442C333.764 122.435 334.252 121.071 334.253 119.647V6.90273C334.252 5.47935 333.764 4.11474 332.896 3.10825C332.029 2.10177 330.853 1.5356 329.626 1.53394H157.087Z" fill="#3F3D56"/>
<path d="M211.823 74.4434C224.984 74.4434 235.653 62.389 235.653 47.5192C235.653 32.6494 224.984 20.595 211.823 20.595C198.662 20.595 187.993 32.6494 187.993 47.5192C187.993 62.389 198.662 74.4434 211.823 74.4434Z" fill="#B2DFFB"/>
<path d="M303.651 95.0627L275.678 40.3214C275.503 39.9792 275.252 39.6951 274.949 39.4976C274.646 39.3 274.303 39.196 273.953 39.196C273.603 39.196 273.26 39.3 272.957 39.4976C272.654 39.6951 272.403 39.9792 272.228 40.3214L255.157 73.7283L229.707 23.9252C229.483 23.4866 229.16 23.1223 228.772 22.869C228.384 22.6158 227.943 22.4824 227.495 22.4824C227.047 22.4824 226.606 22.6158 226.218 22.869C225.83 23.1223 225.507 23.4866 225.283 23.9252L189.418 94.1103C189.194 94.549 189.076 95.0466 189.076 95.5531C189.076 96.0597 189.194 96.5573 189.418 96.996C189.642 97.4346 189.965 97.7989 190.353 98.0522C190.741 98.3055 191.182 98.4388 191.63 98.4388H301.926C302.276 98.4388 302.619 98.3348 302.922 98.1372C303.225 97.9397 303.477 97.6556 303.651 97.3134C303.826 96.9713 303.918 96.5832 303.918 96.1881C303.918 95.793 303.826 95.4049 303.651 95.0627Z" fill="#6C63FF"/>
<path d="M181.122 13.0568H166.507V30.3708H181.122V13.0568Z" fill="#3F3D56"/>
</g>
<defs>
<clipPath id="clip0">
<rect width="561" height="460" fill="white"/>
</clipPath>
</defs>
</svg>
