<svg width="584" height="490" viewBox="0 0 584 490" fill="none" xmlns="http://www.w3.org/2000/svg">
<g clip-path="url(#clip0)">
<path opacity="0.1" d="M339.307 56.0168C301.867 54.8914 266.21 44.3797 232.184 32.8782C198.158 21.3766 164.38 8.6554 127.838 2.56288C104.335 -1.35543 77.4589 -1.90929 58.5217 9.04428C40.2955 19.5854 34.4101 37.7864 31.2445 54.6793C28.8576 67.3828 27.4582 80.7581 33.9869 92.6485C38.5011 100.898 46.5646 107.844 52.1284 115.752C71.4832 143.274 57.8051 177.207 36.8252 204.076C26.9842 216.679 15.5688 228.705 7.97363 242.121C0.378444 255.538 -3.12009 270.922 3.51019 284.592C10.0953 298.144 25.7879 308.344 42.7896 315.515C77.3178 330.068 118.008 334.234 157.682 336.597C245.507 341.817 333.805 339.543 421.866 337.292C454.453 336.455 487.187 335.607 519.249 331.223C537.052 328.79 555.431 324.93 568.342 315.609C584.751 303.777 588.814 283.738 577.822 268.901C559.381 244.013 508.415 237.832 495.499 211.123C488.4 196.422 495.691 180.041 506 166.407C528.12 137.158 565.199 111.498 567.151 78.0653C568.488 55.0858 550.669 32.1063 523.109 21.2411C494.224 9.85151 454.166 11.2833 432.825 30.1383C410.925 49.5472 372.362 57.0361 339.307 56.0168Z" fill="#6C63FF"/>
<path opacity="0.1" d="M245.715 490C336.325 490 409.779 482.265 409.779 472.724C409.779 463.183 336.325 455.448 245.715 455.448C155.105 455.448 81.6511 463.183 81.6511 472.724C81.6511 482.265 155.105 490 245.715 490Z" fill="#6C63FF"/>
<path d="M95.6283 470.85C95.6283 470.85 88.3491 427.784 61.3314 406.443C49.9951 397.487 41.7002 385.308 38.0775 371.437C36.3726 364.865 35.2804 358.137 34.816 351.345" stroke="#535461" stroke-width="2" stroke-miterlimit="10"/>
<path d="M17.8763 337.793C20.1335 342.407 35.2166 351.746 35.2166 351.746C35.2166 351.746 37.1126 334.299 34.8386 329.68C32.5645 325.06 26.9386 323.133 22.2439 325.372C17.5491 327.611 15.6023 333.174 17.8763 337.793Z" fill="#6C63FF"/>
<path d="M16.4374 370.076C20.8952 372.734 38.6926 372.498 38.6926 372.498C38.6926 372.498 30.6629 356.837 26.222 354.179C21.7811 351.522 15.9747 352.924 13.2775 357.314C10.5802 361.704 11.9853 367.419 16.4374 370.076Z" fill="#6C63FF"/>
<path d="M38.5628 413.513C43.7654 413.59 59.0066 404.528 59.0066 404.528C59.0066 404.528 44.0589 395.006 38.8506 394.924C33.6423 394.841 29.3594 398.942 29.2578 404.074C29.1563 409.206 33.3545 413.419 38.5628 413.513Z" fill="#6C63FF"/>
<path d="M62.8042 442.639C67.9166 443.587 84.4951 437.188 84.4951 437.188C84.4951 437.188 71.3925 425.298 66.2858 424.367C61.1791 423.436 56.2416 426.724 55.2824 431.791C54.3231 436.858 57.6862 441.696 62.8042 442.639Z" fill="#6C63FF"/>
<path d="M56.9413 364.874C55.1639 369.699 41.1415 380.517 41.1415 380.517C41.1415 380.517 37.4286 363.359 39.2061 358.534C40.9835 353.708 46.395 351.215 51.2873 352.965C56.1796 354.715 58.7188 360.054 56.9413 364.874Z" fill="#6C63FF"/>
<path d="M84.8562 399.307C81.6962 403.391 65.0387 409.577 65.0387 409.577C65.0387 409.577 66.7316 392.107 69.869 388.03C71.4538 386.052 73.6951 384.771 76.1451 384.443C78.595 384.115 81.0732 384.765 83.0844 386.262C84.0607 386.965 84.887 387.871 85.5109 388.924C86.1349 389.977 86.543 391.153 86.7095 392.379C86.876 393.605 86.7972 394.854 86.4783 396.046C86.1593 397.239 85.607 398.349 84.8562 399.307Z" fill="#6C63FF"/>
<path d="M107.326 436.446C104.911 440.995 89.5566 449.868 89.5566 449.868C89.5566 449.868 88.208 432.374 90.6231 427.826C93.0382 423.277 98.7318 421.521 103.348 423.902C107.963 426.282 109.735 431.897 107.326 436.446Z" fill="#6C63FF"/>
<path opacity="0.25" d="M17.8763 337.793C20.1335 342.407 35.2166 351.746 35.2166 351.746C35.2166 351.746 37.1126 334.299 34.8386 329.68C32.5645 325.06 26.9386 323.133 22.2439 325.372C17.5491 327.611 15.6023 333.174 17.8763 337.793Z" fill="black"/>
<path opacity="0.25" d="M16.4374 370.076C20.8952 372.734 38.6926 372.498 38.6926 372.498C38.6926 372.498 30.6629 356.837 26.222 354.179C21.7811 351.522 15.9747 352.924 13.2775 357.314C10.5802 361.704 11.9853 367.419 16.4374 370.076Z" fill="black"/>
<path opacity="0.25" d="M38.5628 413.513C43.7654 413.59 59.0066 404.528 59.0066 404.528C59.0066 404.528 44.0589 395.006 38.8506 394.924C33.6423 394.841 29.3594 398.942 29.2578 404.074C29.1563 409.206 33.3545 413.419 38.5628 413.513Z" fill="black"/>
<path opacity="0.25" d="M62.8042 442.639C67.9166 443.587 84.4951 437.188 84.4951 437.188C84.4951 437.188 71.3925 425.298 66.2858 424.367C61.1791 423.436 56.2416 426.724 55.2824 431.791C54.3231 436.858 57.6862 441.696 62.8042 442.639Z" fill="black"/>
<path opacity="0.25" d="M56.9413 364.874C55.1639 369.699 41.1415 380.517 41.1415 380.517C41.1415 380.517 37.4286 363.359 39.2061 358.534C40.9835 353.708 46.395 351.215 51.2873 352.965C56.1796 354.715 58.7188 360.054 56.9413 364.874Z" fill="black"/>
<path opacity="0.25" d="M84.8562 399.307C81.6962 403.391 65.0387 409.577 65.0387 409.577C65.0387 409.577 66.7316 392.107 69.869 388.03C71.4538 386.052 73.6951 384.771 76.1451 384.443C78.595 384.115 81.0732 384.765 83.0844 386.262C84.0607 386.965 84.887 387.871 85.5109 388.924C86.1349 389.977 86.543 391.153 86.7095 392.379C86.876 393.605 86.7972 394.854 86.4783 396.046C86.1593 397.239 85.607 398.349 84.8562 399.307Z" fill="black"/>
<path opacity="0.25" d="M107.326 436.446C104.911 440.995 89.5566 449.868 89.5566 449.868C89.5566 449.868 88.208 432.374 90.6231 427.826C93.0382 423.277 98.7318 421.521 103.348 423.902C107.963 426.282 109.735 431.897 107.326 436.446Z" fill="black"/>
<path d="M94.7141 469.719C94.7141 469.719 105.757 427.437 89.8331 397.127C83.1521 384.412 80.5733 369.964 82.9659 355.835C84.1145 349.117 85.8813 342.53 88.2419 336.167" stroke="#535461" stroke-width="2" stroke-miterlimit="10"/>
<path d="M78.3219 317.011C78.5024 322.137 88.4394 336.697 88.4394 336.697C88.4394 336.697 97.3437 321.501 97.1631 316.369C96.9825 311.237 92.6207 307.224 87.418 307.401C82.2154 307.578 78.1356 311.879 78.3219 317.011Z" fill="#34DE2C"/>
<path d="M63.7409 345.954C66.7203 350.161 83.0844 357.055 83.0844 357.055C83.0844 357.055 82.1815 339.531 79.2021 335.318C77.6952 333.278 75.5058 331.907 73.0721 331.479C70.6385 331.052 68.1401 331.6 66.077 333.014C65.0744 333.672 64.2127 334.539 63.546 335.56C62.8793 336.582 62.4219 337.736 62.2025 338.951C61.9832 340.166 62.0066 341.415 62.2713 342.62C62.5361 343.825 63.0364 344.96 63.7409 345.954Z" fill="#34DE2C"/>
<path d="M66.1109 394.488C70.8395 396.638 88.5014 394.446 88.5014 394.446C88.5014 394.446 78.7451 379.763 74.0164 377.612C69.2877 375.462 63.6901 377.495 61.5063 382.155C59.3226 386.816 61.3879 392.337 66.1109 394.488Z" fill="#34DE2C"/>
<path d="M76.2961 430.813C80.5903 433.724 98.3707 434.496 98.3707 434.496C98.3707 434.496 91.272 418.404 86.9835 415.499C84.9167 414.093 82.4175 413.555 79.9866 413.992C77.5557 414.429 75.3728 415.809 73.8753 417.856C73.1718 418.856 72.6744 419.997 72.4145 421.207C72.1546 422.418 72.1378 423.671 72.3653 424.889C72.5928 426.106 73.0595 427.261 73.7361 428.281C74.4127 429.301 75.2843 430.163 76.2961 430.813Z" fill="#34DE2C"/>
<path d="M102.907 357.379C99.2961 361.079 82.0292 365.374 82.0292 365.374C82.0292 365.374 85.6913 348.199 89.2971 344.498C91.0814 342.713 93.4444 341.694 95.9155 341.646C98.3865 341.598 100.784 342.524 102.631 344.239C103.519 345.055 104.234 346.055 104.733 347.175C105.232 348.295 105.503 349.511 105.529 350.745C105.555 351.98 105.335 353.207 104.884 354.349C104.433 355.491 103.76 356.522 102.907 357.379Z" fill="#34DE2C"/>
<path d="M114.249 400.009C109.684 402.477 91.9153 401.482 91.9153 401.482C91.9153 401.482 100.622 386.162 105.187 383.711C109.752 381.26 115.485 382.892 117.985 387.393C120.485 391.895 118.837 397.54 114.249 400.009Z" fill="#34DE2C"/>
<path d="M119.548 442.939C115.468 446.133 97.7838 448.112 97.7838 448.112C97.7838 448.112 103.743 431.573 107.822 428.38C109.805 426.843 112.271 426.144 114.726 426.422C117.181 426.701 119.445 427.936 121.066 429.882C121.832 430.823 122.404 431.92 122.744 433.104C123.085 434.287 123.187 435.531 123.044 436.758C122.902 437.984 122.517 439.167 121.916 440.23C121.314 441.294 120.508 442.217 119.548 442.939Z" fill="#34DE2C"/>
<path d="M559.883 222.819C560.221 221.853 557.682 216.497 557.682 216.231C557.682 215.966 555.058 212.979 555.058 211.311C555.058 209.644 551.582 206.044 551.582 206.044C551.582 206.044 546.927 204.023 546.419 199.633C545.911 195.244 540.838 195.149 540.827 195.149C540.827 195.149 540.827 194.749 540.861 194.142C540.861 192.775 540.821 190.335 540.235 189.004C539.631 187.792 538.595 186.876 537.351 186.452C537.351 186.452 536.843 183.029 535.828 181.974C535.26 181.355 534.853 180.596 534.645 179.767C534.436 178.938 534.434 178.067 534.637 177.237C535.145 175.57 533.96 171.345 531.499 170.756C529.039 170.166 526.252 169.176 526.252 169.176C526.252 169.176 525.975 169.23 525.575 169.288L525.236 169.176C524.647 169.29 524.051 169.367 523.453 169.406C522.934 169.425 522.425 169.25 522.02 168.911C521.168 167.945 514.306 166.101 513.036 166.101C511.767 166.101 508.121 164.333 508.121 164.333L504.488 161.434C503.466 160.621 501.576 157.31 501.299 156.844L501.265 156.779C500.953 156.031 500.697 155.259 500.498 154.47C501.737 153.117 502.796 151.597 503.647 149.95C503.737 149.779 503.816 149.603 503.895 149.432C504.086 149.428 504.276 149.397 504.459 149.337C504.533 149.337 504.606 149.279 504.679 149.249C505.538 148.777 506.185 147.97 506.479 147.004C506.541 146.816 506.598 146.621 506.643 146.415C506.643 146.35 506.643 146.279 506.683 146.215C506.722 146.15 506.739 145.949 506.762 145.814C506.784 145.678 506.79 145.661 506.801 145.59C506.812 145.519 506.841 145.325 506.857 145.189C506.874 145.054 506.857 145.042 506.857 144.971C506.857 144.801 506.897 144.636 506.92 144.471C506.977 143.847 507.065 143.228 507.185 142.615C507.693 140.258 509.064 138.219 510.04 136.015C510.181 135.703 510.311 135.379 510.429 135.055C510.548 134.731 510.666 134.348 510.762 133.988L510.847 133.658C510.909 133.399 510.965 133.134 511.016 132.869C511.016 132.751 511.061 132.633 511.078 132.515C511.135 132.15 511.185 131.785 511.214 131.413C511.396 129.309 511.108 127.189 510.373 125.221C509.735 123.571 508.793 122.086 508.15 120.436C507.173 117.938 506.92 115.133 505.729 112.729C503.737 108.734 499.042 106.737 495.183 108.239C493.337 108.952 491.74 110.343 489.873 110.968C487.367 111.798 484.693 111.174 482.103 110.797C479.513 110.42 476.646 110.39 474.564 112.158C472.166 114.191 471.505 118.015 469.254 120.248C468.312 121.185 467.132 121.786 466.133 122.652C465.432 123.239 464.893 124.009 464.57 124.885C464.57 124.95 464.531 125.009 464.514 125.073C464.497 125.138 464.475 125.221 464.458 125.297C464.441 125.374 464.424 125.474 464.412 125.563C464.401 125.651 464.412 125.686 464.412 125.745C464.401 125.902 464.401 126.06 464.412 126.217C464.429 126.365 464.453 126.513 464.486 126.658C464.486 126.7 464.486 126.741 464.486 126.782C464.486 126.823 464.554 127.024 464.593 127.148C464.591 127.171 464.591 127.195 464.593 127.218C464.638 127.354 464.689 127.483 464.74 127.619L464.824 127.819L464.892 127.984C465.223 128.632 465.486 129.316 465.676 130.023C465.782 130.47 465.756 130.94 465.603 131.372C465.373 131.861 465.053 132.298 464.661 132.657C462.976 134.487 461.675 136.665 460.841 139.05C460.745 139.321 460.649 139.592 460.564 139.875L460.683 139.904C460.924 139.981 461.171 140.038 461.422 140.075C461.563 140.075 461.704 140.11 461.851 140.122C462.43 140.154 463.01 140.106 463.577 139.981C463.718 139.951 463.865 139.916 464.006 139.875C464.587 139.707 465.153 139.488 465.699 139.221C465.699 139.397 465.699 139.58 465.699 139.757C465.699 139.934 465.699 139.957 465.699 140.057C465.705 143.942 466.748 147.748 468.71 151.049C470.673 154.349 473.478 157.013 476.81 158.741C476.81 158.93 476.86 159.124 476.883 159.331C476.906 159.537 476.923 159.649 476.939 159.808L476.714 159.578C476.714 159.578 475.185 158.789 473.746 161.069C472.307 163.349 469.598 164.41 469.598 164.41C469.598 164.41 454.182 166.955 453.59 169.065L446.389 169.501C446.389 169.501 443.844 169.854 443.568 175.393C443.291 180.931 441.96 181.456 441.96 181.456C441.96 181.456 438.997 186.9 439.251 189.705C439.505 192.51 436.994 193.924 436.994 193.924L436.656 198.926C436.656 198.926 433.834 198.49 433.095 201.913C432.356 205.337 430.979 206.922 430.979 206.922C430.979 206.922 426.318 210.964 426.064 214.387L423.186 216.231C423.186 216.231 416.494 214.652 414.97 211.842L414.502 211.382C414.487 211.36 414.474 211.336 414.463 211.311C414.461 211.323 414.461 211.335 414.463 211.347C413.458 210.357 411.336 208.295 411.641 208.766C411.839 209.208 411.887 209.706 411.777 210.18L411.28 209.591L409.948 208.047C409.948 208.047 399.131 197.441 392.777 196.628C392.693 196.457 392.286 194.79 391.203 195.833C390.303 196.692 389.583 197.736 389.089 198.9C388.595 200.063 388.336 201.321 388.331 202.595C388.325 203.868 388.571 205.128 389.055 206.297C389.539 207.465 390.249 208.517 391.141 209.385L401.27 219.266L401.529 219.466L403.707 222.412C403.341 223.332 403.03 224.221 402.776 225.034C402.776 225.034 402.776 225.087 402.748 225.111C402.697 225.288 402.641 225.453 402.59 225.618L402.539 225.794C402.494 225.959 402.443 226.124 402.398 226.278C402.353 226.431 402.347 226.472 402.319 226.566C402.291 226.661 402.319 226.678 402.274 226.731C402.037 227.615 401.879 228.293 401.8 228.67L401.236 228.487L401.8 228.735C401.8 228.764 401.8 228.8 401.8 228.829L401.766 229.012L402.285 229.247C405.254 230.597 420.066 237.379 420.828 238.41C421.674 239.547 427.26 242.888 432.344 240.077C437.429 237.267 438.552 232.959 438.552 232.959C438.552 232.959 443.461 225.848 443.63 224.793C443.799 223.738 447.614 222.507 447.614 222.507C447.614 222.507 447.952 234.291 446.006 238.581C444.059 242.87 440.414 261.949 440.414 261.949C440.651 261.899 440.894 261.883 441.136 261.902C441.001 262.591 440.922 263.004 440.922 263.004C441.218 262.948 441.522 262.948 441.819 263.004C441.548 265.172 439.99 275.236 439.99 275.236C439.99 275.236 439.483 279.802 438.636 281.381C437.79 282.96 437.705 291.221 437.705 291.221L436.351 297.19C436.505 297.543 436.677 297.887 436.864 298.221C436.864 298.221 438.32 301.592 440.764 303.483C440.652 304.422 440.422 305.341 440.081 306.217C439.551 307.549 439.319 308.99 439.404 310.43C439.404 310.43 437.965 317.194 438.134 319.127C438.303 321.059 437.203 325.803 437.203 325.803L435.629 341.04C435.629 341.04 434.613 354.303 435.121 357.909C435.629 361.515 434.777 366.423 434.777 366.423C434.777 366.423 435.792 376.876 435.538 378.019C435.284 379.162 434.015 384.076 434.777 386.804C435.538 389.532 435.121 396.992 435.121 396.992C435.121 396.992 435.629 406.826 436.215 409.99C436.802 413.154 436.046 417.196 436.046 417.196C436.046 417.196 435.482 423.955 435.2 423.955C434.918 423.955 432.745 428.609 437.231 433.182C441.717 437.754 438.924 437.041 438.924 437.041C438.924 437.041 435.369 435.197 435.787 438.974C436.193 442.568 436.752 441.631 436.802 441.531L435.956 444.418L436.52 444.507L436.029 445.096C435.521 445.766 434.955 446.386 434.336 446.946C433.315 447.735 433.208 449.491 433.208 449.491C433.208 449.491 426.944 456.609 421.098 460.209C418.023 462.107 415.371 463.709 414.214 465.035C413.17 466.213 413.34 467.191 415.506 467.94C420.083 469.519 428.124 470.297 433.885 468.293C437.319 467.095 440.407 465.009 442.863 462.23C442.863 462.23 446.508 460.298 450.068 460.999C453.629 461.7 460.739 456.874 460.739 456.874L460.609 455.625L460.231 452.037C459.992 451.734 459.816 451.383 459.714 451.006C459.612 450.629 459.586 450.233 459.639 449.845C459.681 448.783 459.58 447.72 459.34 446.687C459.283 446.339 459.215 445.991 459.153 445.667L459.802 445.544C459.802 445.544 458.962 441.06 460.485 440.182C462.009 439.304 461.58 427.808 461.58 427.808C461.58 427.808 459.639 425.174 458.617 424.738C457.596 424.302 458.533 418.846 458.708 418.145C458.883 417.444 460.231 403.827 460.231 403.827C460.231 403.827 459.723 399.526 460.4 397.681C461.078 395.837 459.588 388.766 459.588 388.766C459.588 388.766 459.08 387.889 460.017 386.834C460.953 385.779 460.581 376.381 460.581 376.381C460.581 376.381 460.502 371.638 460.502 370.406C460.502 369.175 461.518 364.697 462.449 363.206C463.38 361.715 462.787 357.055 462.787 357.055L462.838 356.707C462.838 356.572 462.883 356.407 462.917 356.206L462.99 355.741C463.403 353.153 463.963 350.593 464.666 348.075C465.795 344.387 467.036 337.887 467.036 337.887L474.936 316.44L475.027 316.187C475.027 316.187 478.666 323.216 478.666 329.739C478.666 329.739 479.597 337.557 479.343 339.667C479.089 341.776 480.094 351.646 480.094 351.646C480.094 351.646 481.194 365.875 481.194 366.494C481.194 367.113 482.548 378.09 483.4 379.757C484.252 381.425 482.548 386.522 482.04 387.046C481.533 387.57 482.21 400.486 482.21 400.486C482.21 400.486 480.94 410.674 480.686 412.783C480.432 414.892 479.417 422.976 480.263 426.135C481.109 429.293 480.771 429.735 480.771 429.735C480.771 429.735 483.824 432.987 482.04 433.27C481.392 433.418 480.782 433.708 480.25 434.122C479.718 434.536 479.277 435.064 478.956 435.671C478.636 436.277 478.443 436.948 478.391 437.639C478.339 438.329 478.429 439.024 478.655 439.675C479.71 442.895 480.955 446.044 482.385 449.102C482.385 449.102 482.91 448.979 483.784 448.796V449.839L483.886 455.071C483.886 455.071 484.45 460.08 484.14 461.223C483.891 462.059 483.575 465.995 483.389 468.052C483.327 468.8 483.293 469.301 483.293 469.301C483.293 469.301 483.293 473.956 492.694 472.553C502.095 471.151 503.788 467.286 503.788 467.286C503.788 467.286 503.788 467.103 503.856 466.803C503.997 465.913 504.301 464.027 504.55 462.979C504.888 461.57 501.841 455.248 501.841 455.248C501.841 455.248 501.333 450.947 500.481 449.98C500.132 449.423 499.901 448.794 499.804 448.136C499.725 447.783 499.657 447.411 499.601 447.052C499.811 447.08 500.02 447.119 500.227 447.17C500.227 447.17 499.719 444.094 501.672 443.128C503.624 442.161 503.111 440.146 502.857 439.263C502.603 438.379 503.619 433.465 503.619 433.465C503.482 432.976 503.473 432.459 503.592 431.966C503.711 431.473 503.954 431.022 504.296 430.66C505.486 429.423 506.412 420.82 506.412 420.82L506.581 387.617C506.581 387.617 507.179 381.725 506.502 379.368C505.825 377.012 505.142 372.433 506.073 371.202C507.004 369.97 506.158 364.267 506.158 364.267C506.158 364.267 506.158 352.229 507.433 349.248C508.708 346.266 508.279 327.376 508.279 327.376L508.612 315.002C508.612 315.002 511.383 312.268 510.728 298.015C513.68 297.821 517.009 297.709 517.5 298.133C518.431 298.928 524.446 302.964 528.001 300.419C528.763 300.066 532.233 296.996 532.233 296.996L530.743 270.658C531.674 272.125 532.239 273.103 532.239 273.103C532.239 269.414 542.232 257.465 542.232 257.465C542.232 257.465 551.548 244.909 553.58 243.412C555.611 241.916 559.595 234.014 559.595 234.014C560.183 232.507 560.864 231.041 561.632 229.624C562.597 228.004 559.544 223.785 559.883 222.819ZM538.023 232.034C535.483 232.299 530.123 238.363 530.061 239.694C530.021 240.389 529.457 241.32 528.932 242.051C528.893 241.521 528.847 240.979 528.808 240.431C528.21 232.671 527.561 223.214 527.854 222.295C528.368 220.715 528.193 213.604 528.193 213.604L528.283 213.468C529.976 218.977 535.297 225.476 535.297 225.476C535.297 225.476 536.228 228.287 537.329 228.375C538.429 228.464 538.023 232.034 538.023 232.034Z" fill="url(#paint0_linear)"/>
<path d="M402.223 230.037C402.223 230.037 405.31 213.126 415.247 213.038L422.509 228.64L417.668 232.129C417.668 232.129 407.15 232.476 402.223 230.037Z" fill="#65617D"/>
<path opacity="0.1" d="M422.509 228.64L417.668 232.128C417.668 232.128 410.264 232.376 404.971 231.015C404.028 230.781 403.107 230.454 402.223 230.037C402.223 230.037 402.223 229.942 402.28 229.766C402.28 229.766 402.28 229.724 402.28 229.701C402.735 227.579 403.364 225.501 404.159 223.49C404.469 222.73 404.813 221.947 405.186 221.163C406.642 218.217 408.684 215.377 411.483 213.957C412.518 213.427 413.645 213.12 414.795 213.055H415.089H415.236L415.394 213.403L417.848 218.671L422.509 228.64Z" fill="black"/>
<path d="M504.984 298.899C504.984 298.899 515.423 297.856 516.337 298.64C517.251 299.423 523.182 303.43 526.692 300.902C530.202 298.374 527.86 289.571 527.86 289.224C527.86 288.876 527.527 276.408 527.527 276.408L521.263 267.605L513.42 252.18L497.395 250.518L497.812 275.018L497.727 287.568L504.984 298.899Z" fill="#65617D"/>
<path opacity="0.1" d="M504.984 298.899C504.984 298.899 515.423 297.856 516.337 298.64C517.251 299.423 523.182 303.43 526.692 300.902C530.202 298.374 527.86 289.571 527.86 289.224C527.86 288.876 527.527 276.408 527.527 276.408L521.263 267.605L513.42 252.18L497.395 250.518L497.812 275.018L497.727 287.568L504.984 298.899Z" fill="black"/>
<path d="M413.159 212.59C413.159 212.59 412.324 223.225 405.981 223.396C405.981 223.396 404.181 222.265 401.761 220.379C396.186 216.025 387.343 207.652 389.787 199.863C393.291 188.709 410.321 209.29 410.321 209.29L411.624 210.822L413.159 212.59Z" fill="#FBBEBE"/>
<path opacity="0.1" d="M413.159 212.59C413.159 212.59 412.324 223.225 405.981 223.396C405.981 223.396 404.181 222.265 401.761 220.379L401.225 219.655C402.301 220.241 403.487 220.575 404.7 220.633C405.654 220.672 406.597 220.408 407.404 219.874C408.21 219.341 408.842 218.563 409.215 217.645C409.882 216.278 410.468 214.869 410.97 213.427C411.278 212.586 411.498 211.713 411.624 210.822L413.159 212.59Z" fill="black"/>
<path d="M410.405 231.869L408.978 229.948L404.17 223.467L401.721 220.161C402.797 220.751 403.984 221.085 405.197 221.14C406.794 221.181 408.583 220.55 409.711 218.158C410.377 216.788 410.963 215.377 411.466 213.933C412.256 211.577 412.245 210.398 411.963 209.968C411.681 209.538 413.735 211.547 414.722 212.525L414.756 212.561L415.219 213.014L415.388 213.368L417.809 218.417C417.809 218.417 417.809 218.488 417.809 218.629C418.046 220.25 418.864 230.426 410.405 231.869Z" fill="#B2DFFB"/>
<path d="M460.412 456.238C460.412 456.238 453.398 461.034 449.894 460.362C446.389 459.691 442.795 461.588 442.795 461.588C440.379 464.343 437.332 466.413 433.941 467.604C428.299 469.607 420.342 468.818 415.834 467.25C413.701 466.508 413.526 465.553 414.553 464.369C415.681 463.049 418.311 461.464 421.324 459.579C427.085 456.008 433.259 448.973 433.259 448.973C433.259 448.973 433.343 447.205 434.348 446.451C434.966 445.895 435.533 445.279 436.041 444.612C436.938 443.505 437.779 442.35 437.779 442.35L458.409 442.974C458.409 442.974 458.758 444.524 459.035 446.109C459.27 447.137 459.367 448.194 459.323 449.25C459.27 449.633 459.292 450.024 459.39 450.398C459.487 450.772 459.656 451.121 459.887 451.424L460.259 454.959L460.412 456.238Z" fill="#65617D"/>
<path d="M503.568 462.254C503.319 463.297 503.003 465.165 502.885 466.043L502.812 466.526C502.812 466.526 501.119 470.361 491.882 471.758C482.644 473.154 482.616 468.529 482.616 468.529C482.616 468.529 482.65 468.034 482.706 467.286C482.87 465.247 483.203 461.341 483.451 460.51C483.778 459.378 483.197 454.405 483.197 454.405L483.101 449.214L483.028 445.608L498.393 443.947C498.488 445.147 498.654 446.339 498.89 447.517C498.984 448.172 499.213 448.797 499.561 449.35C500.397 450.31 500.893 454.582 500.893 454.582C500.893 454.582 503.901 460.857 503.568 462.254Z" fill="#65617D"/>
<path opacity="0.1" d="M458.409 442.974C458.409 442.974 458.758 444.524 459.035 446.109C456.806 446.539 447.067 448.301 444.635 447.069C441.875 445.673 435.95 444.889 435.95 444.889L436.046 444.536C436.943 443.428 437.784 442.273 437.784 442.273L458.409 442.974Z" fill="black"/>
<path opacity="0.1" d="M498.89 447.517C494.996 446.828 486.476 448.496 483.09 449.214L483.017 445.608L498.382 443.947C498.48 445.147 498.65 446.339 498.89 447.517Z" fill="black"/>
<path d="M507.552 315.373L507.219 327.664C507.219 327.664 507.636 346.407 506.383 349.371C505.131 352.335 505.131 364.278 505.131 364.278C505.131 364.278 505.966 369.941 505.046 371.16C504.126 372.38 504.798 376.911 505.464 379.268C506.13 381.625 505.548 387.464 505.548 387.464L505.379 420.413C505.379 420.413 504.465 428.951 503.291 430.177C502.955 430.538 502.716 430.987 502.599 431.476C502.482 431.966 502.491 432.479 502.625 432.964C502.625 432.964 501.627 437.842 501.875 438.72C502.123 439.598 502.625 441.596 500.707 442.55C498.788 443.505 499.285 446.563 499.285 446.563C494.697 445.426 481.674 448.484 481.674 448.484C480.266 445.454 479.04 442.337 478 439.15C477.776 438.505 477.686 437.818 477.736 437.133C477.787 436.449 477.976 435.784 478.292 435.182C478.609 434.58 479.044 434.056 479.57 433.644C480.095 433.232 480.699 432.942 481.341 432.793C483.09 432.528 480.088 429.305 480.088 429.305C480.088 429.305 480.421 428.868 479.586 425.734C478.751 422.599 479.75 414.539 480.003 412.476C480.257 410.414 481.504 400.274 481.504 400.274C481.504 400.274 480.839 387.464 481.341 386.94C481.843 386.415 483.508 381.36 482.678 379.704C481.849 378.048 480.5 367.154 480.5 366.541C480.5 365.928 479.422 351.811 479.422 351.811C479.422 351.811 478.418 341.959 478.672 339.867C478.926 337.775 478 330.021 478 330.021C478 323.54 474.411 316.593 474.411 316.593L474.321 316.846L466.585 338.129C466.585 338.129 465.332 344.575 464.249 348.234C463.564 350.722 463.019 353.25 462.618 355.805L462.545 356.271C462.545 356.465 462.488 356.63 462.471 356.76L462.421 357.113C462.421 357.113 462.985 361.733 462.082 363.218C461.179 364.703 460.163 369.145 460.163 370.365C460.163 371.585 460.248 376.293 460.248 376.293C460.248 376.293 460.581 385.62 459.684 386.669C458.787 387.717 459.261 388.584 459.261 388.584C459.261 388.584 460.762 395.654 460.096 397.475C459.43 399.296 459.932 403.573 459.932 403.573C459.932 403.573 458.595 417.09 458.431 417.785C458.267 418.481 457.342 423.89 458.346 424.326C459.351 424.762 461.264 427.372 461.264 427.372C461.264 427.372 461.687 438.797 460.18 439.663C458.674 440.529 459.509 444.966 459.509 444.966C459.509 444.966 447.411 447.405 444.657 446.009C441.903 444.612 435.973 443.829 435.973 443.829L436.802 440.965C436.751 441.065 436.198 441.996 435.803 438.426C435.392 434.678 438.896 436.505 438.896 436.505C438.896 436.505 441.649 437.206 437.203 432.675C432.756 428.144 434.946 423.518 435.2 423.518C435.454 423.518 436.041 416.813 436.041 416.813C436.041 416.813 436.791 412.801 436.204 409.66C435.617 406.519 435.121 396.756 435.121 396.756C435.121 396.756 435.538 389.35 434.788 386.651C434.037 383.952 435.284 379.062 435.538 377.931C435.792 376.799 434.76 366.453 434.76 366.453C434.76 366.453 435.595 361.574 435.093 358.003C434.59 354.433 435.595 341.263 435.595 341.263L437.096 326.097C437.096 326.097 438.179 321.383 438.015 319.468C437.852 317.553 439.274 310.842 439.274 310.842C439.189 309.413 439.416 307.982 439.94 306.659C440.775 304.891 441.108 299.164 441.108 299.164L449.126 279.985L453.076 263.074L506.079 262.55C506.079 262.55 506.276 264.017 506.598 266.674C506.92 269.332 507.371 273.279 507.873 278.152C508.336 282.577 508.844 287.78 509.335 293.572C510.937 312.062 507.552 315.373 507.552 315.373Z" fill="#3F3D56"/>
<path d="M502.648 162.742L490.29 176.518C490.29 176.518 474.434 169.889 476.104 167.627C476.748 166.749 476.669 163.979 476.274 160.927C475.709 156.096 474.434 150.539 474.434 150.539C474.434 150.539 502.146 145.826 499.827 150.71C498.975 152.478 499.121 154.576 499.652 156.502C500.323 158.737 501.335 160.844 502.648 162.742Z" fill="#FBBEBE"/>
<path opacity="0.1" d="M499.81 150.722C498.958 152.49 498.551 152.678 499.082 154.605C495.459 158.653 490.849 163.096 485.116 163.096C482.048 163.101 479.021 162.36 476.274 160.933C475.709 156.102 474.434 150.545 474.434 150.545C474.434 150.545 502.146 145.832 499.81 150.722Z" fill="black"/>
<path d="M504.99 141.819C504.902 147.262 502.77 152.45 499.053 156.267C495.336 160.083 490.332 162.222 485.119 162.222C479.906 162.222 474.902 160.083 471.185 156.267C467.468 152.45 465.335 147.262 465.248 141.819C465.248 141.719 465.248 141.619 465.248 141.524C465.285 136.022 467.414 130.761 471.167 126.898C473.025 124.985 475.225 123.473 477.643 122.448C480.061 121.423 482.648 120.906 485.257 120.925C487.866 120.945 490.446 121.5 492.849 122.561C495.253 123.621 497.433 125.166 499.265 127.106C501.096 129.046 502.544 131.344 503.526 133.869C504.507 136.393 505.003 139.095 504.984 141.819H504.99Z" fill="#FBBEBE"/>
<path opacity="0.1" d="M507.862 278.688C505.232 278.688 496.469 278.789 486.673 278.948H486.555L483.321 279.007H483.22C471.607 279.201 460.158 276.832 455.57 277.28C445.808 278.235 459.08 267.853 459.08 267.853C466.358 269.7 473.845 270.493 481.33 270.21L484.151 270.056C493.021 269.532 501.943 268.66 506.604 267.199C506.914 269.897 507.36 273.816 507.862 278.688Z" fill="black"/>
<path d="M507.862 278.164C505.232 278.164 496.469 278.264 486.673 278.423H486.555L483.321 278.482H483.22C471.607 278.677 460.158 276.308 455.57 276.756C445.808 277.716 459.08 267.328 459.08 267.328C466.358 269.175 473.845 269.968 481.33 269.685L484.151 269.532C493.021 269.008 501.943 268.136 506.604 266.68C506.914 269.379 507.36 273.279 507.862 278.164Z" fill="#5F5D7E"/>
<path opacity="0.1" d="M479.778 168.493L464.418 175.994L452.568 271.701C452.568 271.701 459.577 268.389 463.589 270.481C467.601 272.573 479.953 270.658 479.953 270.658C479.953 270.658 488.981 270.133 490.307 271.182C491.633 272.231 507.326 266.798 507.326 266.798C507.326 266.798 510.147 260.175 507.992 259.138C505.836 258.101 508.68 247.82 508.68 247.82L507.326 178.781L504.651 169.889L497.473 165.358L490.138 171.457L486.634 171.981L479.778 168.493Z" fill="black"/>
<path d="M479.778 167.45L464.418 174.945L452.568 270.658C452.568 270.658 459.577 267.346 463.589 269.438C467.601 271.53 479.953 269.609 479.953 269.609C479.953 269.609 488.981 269.09 490.307 270.133C491.633 271.176 507.337 265.773 507.337 265.773C507.337 265.773 510.159 259.15 508.003 258.113C505.847 257.076 508.68 246.765 508.68 246.765L507.326 177.732L504.651 168.847L497.474 164.31L490.138 170.414L486.634 170.938L479.778 167.45Z" fill="#B2DFFB"/>
<path opacity="0.1" d="M479.524 171.893C479.524 171.893 483.948 177.384 483.869 178.521C483.79 179.659 483.615 182.357 483.615 182.357L480.274 189.428C480.274 189.428 478.44 198.231 478.44 200.063C478.44 201.896 475.517 217.74 475.517 217.74L472.002 242.151L467.578 274.146L472.092 282.247L477.43 277.534L484.529 220.521L486.03 209.279C486.03 209.279 487.616 189.057 487.616 186.965C487.616 184.873 486.701 179.382 486.701 179.382C486.701 179.382 487.785 174.149 492.293 172.9C496.802 171.651 491.961 172.635 491.961 172.635L489.371 170.461L487.113 171.415C487.113 171.415 480.861 169.453 479.524 171.893Z" fill="black"/>
<path d="M479.022 171.374C479.022 171.374 483.451 176.866 483.367 177.997C483.282 179.128 483.113 181.833 483.113 181.833L479.778 188.903C479.778 188.903 477.938 197.706 477.938 199.539C477.938 201.371 475.015 217.215 475.015 217.215L471.511 241.621L467.087 273.615L471.601 281.723L476.945 277.009L484.038 220.002L485.545 208.766C485.545 208.766 487.13 188.544 487.13 186.452C487.13 184.361 486.216 178.869 486.216 178.869C486.216 178.869 487.3 173.637 491.808 172.417C496.317 171.197 491.475 172.158 491.475 172.158L488.885 169.978L486.628 170.938C486.628 170.938 480.359 168.929 479.022 171.374Z" fill="#34DE2C"/>
<path opacity="0.1" d="M476.104 162.218C476.104 162.218 475.433 162.742 475.269 166.23C475.106 169.719 472.764 177.561 472.764 177.561C472.764 177.561 481.448 171.286 485.787 171.981L476.104 162.218Z" fill="black"/>
<path d="M476.104 161.175C476.104 161.175 475.433 161.693 475.269 165.182C475.106 168.67 472.764 176.512 472.764 176.512C472.764 176.512 481.448 170.237 485.787 170.938L476.104 161.175Z" fill="#B2DFFB"/>
<path opacity="0.1" d="M499.81 159.431L486.109 171.981C486.109 171.981 497.632 179.128 499.133 180.872C500.634 182.616 502.134 163.785 502.134 163.785L499.81 159.431Z" fill="black"/>
<path d="M500.312 158.382L486.622 170.938C486.622 170.938 498.139 178.085 499.652 179.829C501.164 181.573 502.654 162.742 502.654 162.742L500.312 158.382Z" fill="#B2DFFB"/>
<path opacity="0.1" d="M476.601 162.218C476.601 162.218 475.1 161.434 473.684 163.703C472.64 165.181 471.224 166.328 469.593 167.014C469.593 167.014 454.396 169.542 453.793 171.633L446.694 172.069C446.694 172.069 444.189 172.417 443.94 177.909C443.692 183.4 442.355 183.925 442.355 183.925C442.355 183.925 439.432 189.328 439.686 192.115C439.94 194.902 437.429 196.304 437.429 196.304L447.862 224.634C447.862 224.634 448.201 236.312 446.277 240.584C444.352 244.856 440.769 263.77 440.769 263.77C440.769 263.77 442.27 263.422 442.185 264.465C442.101 265.508 440.402 276.933 440.402 276.933C440.402 276.933 439.9 281.464 439.065 283.037C438.23 284.61 438.145 292.794 438.145 292.794L436.814 298.722C436.814 298.722 439.985 306.134 444.826 305.086C449.668 304.037 458.431 284.257 458.431 284.257L464.029 262.898L468.368 241.804L469.621 227.509L471.624 195.868L474.547 174.945C474.547 174.945 477.775 163.685 476.601 162.218Z" fill="black"/>
<path d="M476.104 161.175C476.104 161.175 474.598 160.391 473.181 162.654C472.14 164.134 470.723 165.281 469.09 165.965C469.09 165.965 453.9 168.493 453.291 170.585L446.192 171.021C446.192 171.021 443.692 171.374 443.438 176.866C443.184 182.357 441.853 182.876 441.853 182.876C441.853 182.876 438.93 188.285 439.184 191.072C439.438 193.859 436.926 195.255 436.926 195.255L447.366 223.585C447.366 223.585 447.699 235.263 445.78 239.535C443.861 243.807 440.267 262.727 440.267 262.727C440.267 262.727 441.768 262.373 441.689 263.422C441.61 264.471 439.849 275.884 439.849 275.884C439.849 275.884 439.347 280.421 438.512 281.988C437.677 283.555 437.598 291.751 437.598 291.751L436.261 297.679C436.261 297.679 439.432 305.085 444.273 304.043C449.115 303 457.895 283.208 457.895 283.208L463.487 261.854L467.826 240.76L469.079 226.46L471.082 194.819L474.005 173.902C474.005 173.902 477.272 162.654 476.104 161.175Z" fill="#65617D"/>
<path opacity="0.1" d="M422.509 228.64L417.668 232.129C417.668 232.129 410.264 232.376 404.971 231.015L402.28 229.766L401.716 229.518L402.28 229.701C405.073 230.567 407.257 230.549 408.966 229.948C415.817 227.539 415.061 215.725 414.795 213.056C414.795 212.784 414.75 212.614 414.739 212.549C414.738 212.537 414.738 212.525 414.739 212.513L414.779 212.584C414.873 212.745 414.979 212.899 415.095 213.044C415.19 213.156 415.292 213.274 415.399 213.385L417.82 218.435C417.82 218.435 417.82 218.506 417.82 218.647L422.509 228.64Z" fill="black"/>
<path d="M439.274 194.56L436.932 195.255L436.599 200.222C436.599 200.222 433.845 199.786 433.095 203.169C432.344 206.551 431.007 208.142 431.007 208.142C431.007 208.142 426.414 212.148 426.166 215.548L423.344 217.381C423.344 217.381 416.748 215.807 415.247 213.02C415.247 213.02 418.254 235.511 402.223 230.019C402.223 230.019 420.173 238.209 421.008 239.347C421.843 240.484 427.351 243.789 432.361 241.002C437.372 238.215 438.456 233.932 438.456 233.932C438.456 233.932 443.297 226.861 443.461 225.824C443.624 224.787 447.411 223.556 447.411 223.556L454.588 205.425L439.274 194.56Z" fill="#65617D"/>
<path opacity="0.1" d="M497.891 169.889L500.312 158.382C500.312 158.382 501.395 162.129 502.484 163.001L506.073 165.883C506.073 165.883 509.662 167.621 510.915 167.621C512.167 167.621 518.927 169.453 519.763 170.414C520.598 171.374 523.938 170.673 523.938 170.673C523.938 170.673 526.692 171.633 529.113 172.24C531.533 172.847 532.702 177.036 532.199 178.722C531.996 179.546 531.996 180.412 532.2 181.236C532.405 182.061 532.806 182.817 533.367 183.435C534.372 184.484 534.874 187.884 534.874 187.884C536.097 188.306 537.111 189.214 537.695 190.412C538.531 192.327 538.26 196.51 538.26 196.51L525.846 214.817C525.846 214.817 526.009 221.888 525.513 223.449C525.016 225.011 527.262 251.69 527.262 251.69L529.852 297.538C529.852 297.538 526.427 300.59 525.676 300.937C524.926 301.285 524.175 284.728 524.175 284.115C524.175 283.502 504.894 253.953 504.894 253.953C504.894 253.953 502.304 249.599 502.304 248.65C502.304 247.701 499.883 238.887 499.883 238.887L496.21 221.888L497.891 169.889Z" fill="black"/>
<path d="M539.326 195.503C539.326 196.092 539.326 196.504 539.326 196.504L526.912 214.77C526.912 214.77 527.081 221.841 526.585 223.396C526.291 224.31 526.929 233.69 527.521 241.397C527.939 246.953 528.334 251.637 528.334 251.637L529.434 271.082L530.918 297.479C530.918 297.479 527.499 300.531 526.748 300.878C525.998 301.226 525.247 284.669 525.247 284.056C525.247 283.443 505.96 253.9 505.96 253.9C505.96 253.9 503.37 249.534 503.37 248.597C503.37 247.66 500.95 238.834 500.95 238.834L497.282 221.835L498.946 169.883L500.312 158.382C500.312 158.382 502.4 162.135 503.483 163.001L507.072 165.877C507.072 165.877 510.661 167.644 511.913 167.644C513.166 167.644 519.932 169.471 520.767 170.431C521.602 171.392 524.937 170.691 524.937 170.691C524.937 170.691 527.691 171.651 530.111 172.258C532.532 172.865 533.706 177.054 533.204 178.739C532.999 179.564 532.999 180.429 533.203 181.254C533.407 182.079 533.81 182.836 534.372 183.453C535.371 184.496 535.873 187.896 535.873 187.896C537.095 188.321 538.109 189.231 538.694 190.429C539.292 191.696 539.349 194.118 539.326 195.503Z" fill="#65617D"/>
<path opacity="0.1" d="M437.288 427.737C437.7 427.737 455.232 428.433 454.899 431.396C454.566 434.36 437.288 427.737 437.288 427.737Z" fill="black"/>
<path opacity="0.1" d="M441.209 432.704C441.209 432.704 452.98 434.708 449.888 436.54C446.796 438.373 441.209 432.704 441.209 432.704Z" fill="black"/>
<path opacity="0.1" d="M484.98 425.816C484.98 425.816 504.516 427.584 501.593 429.829C498.67 432.074 491.741 432.439 491.436 432.528C491.131 432.616 484.98 425.816 484.98 425.816Z" fill="black"/>
<path opacity="0.1" d="M482.616 434.796C482.616 434.796 493.467 436.711 493.8 438.921C494.133 441.13 482.616 434.796 482.616 434.796Z" fill="black"/>
<path opacity="0.1" d="M488.626 382.32C488.626 382.32 498.557 384.76 499.144 386.445L488.626 382.32Z" fill="black"/>
<path opacity="0.1" d="M450.305 389.815C450.305 389.815 445.131 391.383 450.142 394.529C455.153 397.675 450.305 389.815 450.305 389.815Z" fill="black"/>
<path opacity="0.1" d="M473.266 306.046C473.83 306.046 482.949 302.911 486.12 304.278C488.39 305.169 490.789 305.645 493.213 305.686L473.266 306.046Z" fill="black"/>
<path opacity="0.1" d="M474.434 315.98L474.344 316.846L466.585 338.129C466.585 338.129 465.332 344.575 464.249 348.234C463.564 350.722 463.019 353.251 462.618 355.806L469.508 311.19L474.434 315.98Z" fill="black"/>
<path d="M486.555 278.424L483.321 278.482H483.22L481.324 269.697L484.145 269.538L486.555 278.424Z" fill="#3F3D56"/>
<path d="M525.941 267.782L523.859 269.55L516.924 275.518C516.924 275.518 498.139 285.983 492.965 276.043C488.406 267.287 509.701 261.035 514.831 259.674C515.525 259.492 515.92 259.397 515.92 259.397L525.941 267.782Z" fill="#FBBEBE"/>
<path opacity="0.1" d="M445.718 182.092C445.718 182.092 449.391 183.86 450.232 186.276C451.073 188.691 445.718 182.092 445.718 182.092Z" fill="black"/>
<path opacity="0.1" d="M434.365 208.242C434.365 208.242 429.021 215.041 431.193 217.669C433.366 220.297 434.365 208.242 434.365 208.242Z" fill="black"/>
<path opacity="0.1" d="M529.863 185.928C529.863 185.928 524.852 186.452 524.689 190.983L529.863 185.928Z" fill="black"/>
<path opacity="0.1" d="M483.451 257.406C483.948 256.882 495.47 239.099 498.122 240.672L483.451 257.406Z" fill="black"/>
<path opacity="0.1" d="M504.99 141.819C504.995 145.236 504.186 148.602 502.637 151.612L502.49 151.582C501.232 151.305 500.577 149.773 499.612 148.819C499.02 148.23 498.266 147.85 497.457 147.731C496.647 147.613 495.822 147.762 495.098 148.159C494.368 148.617 493.775 149.277 493.384 150.067C492.993 150.857 492.821 151.745 492.886 152.631C492.248 149.838 492.451 146.875 491.831 144.076C491.21 141.277 489.342 138.449 486.78 138.402C485.652 138.402 484.394 138.82 483.592 137.96C483.113 137.441 483.028 136.622 482.656 135.986C480.827 132.898 475.258 134.46 472.984 136.045C470.71 137.63 468.075 140.169 465.248 141.524C465.285 136.022 467.414 130.761 471.167 126.898C473.025 124.985 475.225 123.473 477.643 122.448C480.061 121.423 482.648 120.906 485.257 120.925C487.866 120.945 490.446 121.5 492.849 122.561C495.253 123.621 497.433 125.166 499.265 127.106C501.096 129.046 502.544 131.344 503.526 133.869C504.507 136.393 505.003 139.095 504.984 141.819H504.99Z" fill="black"/>
<path d="M482.661 135.467C483.022 136.098 483.118 136.917 483.598 137.435C484.394 138.301 485.686 137.854 486.786 137.877C489.348 137.924 491.216 140.752 491.836 143.551C492.457 146.35 492.254 149.314 492.892 152.107C492.826 151.22 492.999 150.331 493.39 149.541C493.782 148.751 494.378 148.09 495.109 147.635C495.833 147.238 496.658 147.088 497.468 147.207C498.278 147.325 499.032 147.705 499.623 148.294C500.588 149.249 501.243 150.781 502.501 151.058C503.76 151.335 504.973 150.074 505.43 148.701C505.887 147.328 505.853 145.796 506.152 144.358C506.716 141.642 508.409 139.409 509.357 136.822C510.475 133.677 510.445 130.212 509.273 127.088C508.646 125.45 507.715 123.977 507.078 122.345C506.118 119.859 505.87 117.042 504.696 114.685C502.733 110.72 498.106 108.74 494.297 110.231C492.485 110.938 490.911 112.317 489.066 112.935C486.6 113.766 483.959 113.142 481.409 112.77C478.858 112.399 476.031 112.364 473.977 114.114C471.613 116.135 470.969 119.929 468.746 122.145C467.815 123.076 466.658 123.671 465.676 124.502C464.695 125.333 463.843 126.641 463.984 128.037C464.13 129.84 465.823 131.478 465.197 133.152C464.971 133.637 464.657 134.071 464.271 134.43C462.412 136.465 461.03 138.921 460.231 141.607C464.695 143.068 469.531 137.924 473.029 135.491C475.269 133.941 480.833 132.374 482.661 135.467Z" fill="#7C5C5C"/>
<path opacity="0.1" d="M525.941 267.782L523.859 269.55C522.025 266.368 514.503 260.004 514.503 260.004L514.831 259.674C515.525 259.492 515.92 259.397 515.92 259.397L525.941 267.782Z" fill="black"/>
<path d="M527.945 264.553C527.945 264.553 527.194 266.498 526.427 268.171C525.659 269.844 524.813 271.376 524.773 270.133C524.689 267.694 515.006 259.498 515.006 259.498L516.32 258.166L517.838 256.622L527.945 264.553Z" fill="#B2DFFB"/>
<path opacity="0.1" d="M528.278 251.649L529.378 271.094C526.782 266.881 519.661 256.086 515.085 256.434L526.173 243.112C526.635 242.575 527.061 242.006 527.448 241.409C527.866 246.965 528.278 251.649 528.278 251.649Z" fill="black"/>
<path opacity="0.1" d="M527.945 264.553C527.945 264.553 527.194 266.498 526.427 268.171C523.515 264.005 519.514 259.085 516.32 258.154L517.838 256.611L527.945 264.553Z" fill="black"/>
<path d="M536.29 194.036L539.298 196.475C539.298 196.475 544.303 196.563 544.805 200.924C545.307 205.284 549.884 207.287 549.884 207.287C549.884 207.287 553.303 210.858 553.303 212.514C553.303 214.169 555.893 217.133 555.893 217.398C555.893 217.663 558.399 222.978 558.06 223.933C557.722 224.887 560.735 229.076 559.815 230.644C559.061 232.052 558.392 233.508 557.812 235.004C557.812 235.004 553.89 242.852 551.887 244.331C549.884 245.81 540.697 258.278 540.697 258.278C540.697 258.278 530.851 270.133 530.851 273.792C530.851 273.792 521.258 257.058 515.57 257.494L526.675 244.155C526.675 244.155 528.594 241.98 528.678 240.672C528.763 239.364 534.022 233.348 536.527 233.089C536.527 233.089 536.939 229.512 535.856 229.424C534.772 229.336 533.853 226.549 533.853 226.549C533.853 226.549 526.517 217.487 526.421 211.73C526.325 205.973 536.29 194.036 536.29 194.036Z" fill="#65617D"/>
<path opacity="0.1" d="M540.714 202.314C540.714 202.314 533.706 207.723 535.207 209.461C536.708 211.199 540.714 202.314 540.714 202.314Z" fill="black"/>
<path opacity="0.1" d="M541.047 224.634C541.047 224.634 554.071 220.273 555.408 224.634H541.047Z" fill="black"/>
<path opacity="0.1" d="M460.412 456.238C460.412 456.238 453.398 461.034 449.894 460.362C446.389 459.691 442.795 461.588 442.795 461.588C440.379 464.343 437.332 466.413 433.941 467.604C428.299 469.607 420.342 468.818 415.834 467.25C413.701 466.508 413.526 465.553 414.553 464.369C419.456 465.388 430.409 467.421 433.36 465.942C437.197 464.021 442.71 459.838 442.71 459.838C442.71 459.838 449.894 458.795 450.892 458.795C451.603 458.795 457.15 456.403 460.282 455.036L460.412 456.238Z" fill="black"/>
<path opacity="0.1" d="M502.885 466.042L502.812 466.526C502.812 466.526 501.119 470.361 491.882 471.758C482.644 473.154 482.616 468.529 482.616 468.529C482.616 468.529 482.65 468.034 482.706 467.286C485.641 468.446 492.04 469.743 502.885 466.042Z" fill="black"/>
<path opacity="0.1" d="M449.183 201.271C449.183 201.271 449.183 221.145 447.552 223.107C445.921 225.07 449.183 201.271 449.183 201.271Z" fill="black"/>
<path opacity="0.1" d="M524.435 207.676L526.856 214.782C526.856 214.782 527.821 207.806 524.435 207.676Z" fill="black"/>
<g opacity="0.1">
<path opacity="0.1" d="M465.411 131.484C466.021 129.846 464.418 128.243 464.209 126.488C463.997 126.983 463.906 127.525 463.944 128.067C464.051 129.387 464.982 130.618 465.231 131.844C465.301 131.729 465.361 131.609 465.411 131.484Z" fill="black"/>
<path opacity="0.1" d="M493.117 150.257C492.519 147.511 492.694 144.6 492.085 141.849C491.475 139.097 489.596 136.222 487.04 136.174C485.911 136.174 484.648 136.599 483.852 135.738C483.367 135.22 483.288 134.395 482.91 133.764C481.081 130.671 475.517 132.238 473.238 133.823C469.852 136.18 465.135 141.147 460.756 140.028C460.547 140.552 460.355 141.088 460.192 141.636C464.655 143.098 469.491 137.954 472.99 135.52C475.247 133.941 480.833 132.374 482.661 135.467C483.022 136.098 483.118 136.917 483.598 137.435C484.394 138.301 485.686 137.854 486.786 137.877C489.348 137.924 491.216 140.753 491.836 143.551C492.457 146.35 492.254 149.314 492.892 152.107C492.85 151.481 492.927 150.852 493.117 150.257Z" fill="black"/>
<path opacity="0.1" d="M505.667 146.992C505.215 148.371 504.025 149.644 502.738 149.349C501.452 149.055 500.825 147.54 499.866 146.58C499.271 145.997 498.517 145.622 497.708 145.504C496.9 145.387 496.077 145.535 495.352 145.926C494.656 146.359 494.083 146.979 493.693 147.72C493.303 148.462 493.11 149.299 493.134 150.145C493.472 149.08 494.173 148.183 495.104 147.623C495.828 147.226 496.653 147.077 497.462 147.195C498.272 147.313 499.026 147.694 499.618 148.283C500.583 149.237 501.237 150.769 502.496 151.046C503.754 151.323 504.967 150.062 505.424 148.689C505.662 147.874 505.815 147.034 505.881 146.185C505.826 146.459 505.755 146.728 505.667 146.992Z" fill="black"/>
<path opacity="0.1" d="M509.594 135.114C508.658 137.7 506.953 139.928 506.389 142.65C506.276 143.198 506.209 143.758 506.146 144.323C506.711 141.613 508.404 139.391 509.346 136.811C509.762 135.65 510.022 134.434 510.119 133.199C509.991 133.85 509.815 134.49 509.594 135.114Z" fill="black"/>
</g>
<path d="M388.957 198.231C389.069 198.231 389.16 198.136 389.16 198.019C389.16 197.902 389.069 197.807 388.957 197.807C388.845 197.807 388.754 197.902 388.754 198.019C388.754 198.136 388.845 198.231 388.957 198.231Z" fill="#E6E8EC"/>
<path opacity="0.1" d="M461.038 472.017C487.945 472.017 509.758 469.693 509.758 466.826C509.758 463.959 487.945 461.635 461.038 461.635C434.131 461.635 412.318 463.959 412.318 466.826C412.318 469.693 434.131 472.017 461.038 472.017Z" fill="#6C63FF"/>
<path d="M281.885 126.323L134.321 226.289L230.621 407.651C231.071 408.499 231.684 409.24 232.422 409.829C233.16 410.417 234.007 410.839 234.909 411.068L322.164 433.294C323.659 433.671 325.233 433.502 326.623 432.815C328.013 432.128 329.136 430.964 329.804 429.517L373.084 335.625L420.517 269.414L307.955 130.359C304.823 126.491 300.448 123.948 295.649 123.205C290.851 122.462 285.958 123.57 281.885 126.323Z" fill="#DCDFED"/>
<path opacity="0.1" d="M422.018 270.198L421.601 270.787L393.816 309.575L393.313 310.277L374.585 336.42L337.568 416.737L336.53 418.981L331.305 430.312C330.637 431.761 329.512 432.927 328.119 433.615C326.727 434.302 325.15 434.47 323.653 434.089L236.399 411.852C235.496 411.623 234.649 411.201 233.911 410.613C233.173 410.025 232.56 409.283 232.11 408.434L223.72 392.661L222.213 389.821L161.649 275.713L161.13 274.741L135.816 227.073L138.875 224.999L162.061 209.296L162.597 208.931L211.424 175.852L214.505 173.766L283.375 127.106C287.447 124.349 292.343 123.237 297.144 123.979C301.946 124.72 306.323 127.265 309.456 131.136L360.805 194.595L363.062 197.423L400.333 243.465L400.536 243.718L419.276 266.863L421.635 269.78L422.018 270.198Z" fill="black"/>
<path opacity="0.1" d="M399.092 242.935L394.544 275.931L393.172 285.889L392.388 307.101L392.326 308.756L388.246 419.588C388.207 420.616 387.952 421.623 387.499 422.537C387.046 423.451 386.407 424.25 385.626 424.878C384.845 425.506 383.942 425.947 382.98 426.17C382.018 426.393 381.021 426.393 380.059 426.17L336.079 415.917L335.605 415.805L222.811 389.52L220.74 389.037L158.732 374.578L160.154 274.929L160.199 271.6L160.628 241.438L161.102 208.147L209.929 175.069L213.009 172.983C258.298 177.832 318.53 187.159 359.333 193.812L361.59 196.64L398.832 242.681L399.092 242.935Z" fill="black"/>
<path d="M404.243 203.811L398.888 242.699L393.979 278.312L392.608 288.246L391.824 309.458L387.682 421.945C387.643 422.974 387.388 423.98 386.935 424.894C386.482 425.808 385.843 426.607 385.062 427.235C384.281 427.863 383.378 428.304 382.415 428.527C381.453 428.75 380.456 428.75 379.494 428.527L335.04 418.163L222.247 391.878L158.167 376.935L159.634 273.957L160.063 243.795L160.565 208.513L161.079 172.223C171.676 171.698 189.112 172.883 209.929 175.069C256.538 179.953 320.076 189.834 361.618 196.64C387.055 200.806 404.243 203.811 404.243 203.811Z" fill="#6C63FF"/>
<path opacity="0.1" d="M417.831 266.079L393.979 278.294L272.247 340.633L160.063 243.819L137.385 224.215L134.326 226.289L159.64 273.957L158.173 376.935L222.252 391.877L230.626 407.651C231.076 408.499 231.689 409.241 232.427 409.829C233.165 410.418 234.012 410.84 234.915 411.068L322.169 433.294C323.663 433.67 325.236 433.5 326.625 432.813C328.014 432.126 329.136 430.962 329.804 429.517L335.029 418.186L379.483 428.55C380.445 428.774 381.442 428.774 382.404 428.551C383.366 428.327 384.27 427.886 385.051 427.259C385.832 426.631 386.471 425.832 386.924 424.918C387.376 424.004 387.631 422.997 387.671 421.969L391.812 309.481L420.1 270.003L420.179 269.008L417.831 266.079Z" fill="black"/>
<path d="M134.321 226.289L124.26 406.195C124.167 407.861 124.644 409.506 125.607 410.837C126.569 412.168 127.954 413.098 129.513 413.46L396.71 475.417C397.647 475.631 398.617 475.634 399.555 475.424C400.493 475.215 401.377 474.799 402.148 474.203C402.919 473.608 403.56 472.847 404.026 471.972C404.493 471.097 404.774 470.128 404.853 469.13L420.512 269.414L272.247 345.347L134.321 226.289Z" fill="#DCDFED"/>
<path opacity="0.1" d="M126.099 410.314L264.912 320.888C266.967 319.587 269.397 319.086 271.772 319.474C274.147 319.862 276.314 321.114 277.89 323.01L402.133 474.315C402.585 474.857 402.805 474.468 402.133 474.315L126.099 410.314C125.309 410.131 125.411 410.744 126.099 410.314Z" fill="black"/>
<path d="M127.092 410.167L264.472 323.51C266.644 322.141 269.209 321.615 271.715 322.027C274.221 322.439 276.508 323.761 278.172 325.761L401.292 473.614C401.496 473.86 401.621 474.167 401.648 474.491C401.676 474.815 401.605 475.14 401.446 475.419C401.286 475.699 401.047 475.919 400.761 476.049C400.475 476.178 400.158 476.211 399.853 476.141L127.538 413.001C127.248 412.935 126.984 412.78 126.779 412.556C126.575 412.331 126.44 412.048 126.392 411.742C126.344 411.436 126.385 411.123 126.51 410.842C126.635 410.561 126.838 410.326 127.092 410.167Z" fill="#E3E5F1"/>
</g>
<defs>
<linearGradient id="paint0_linear" x1="475.1" y1="472.801" x2="475.1" y2="107.739" gradientUnits="userSpaceOnUse">
<stop stop-color="#808080" stop-opacity="0.25"/>
<stop offset="0.54" stop-color="#808080" stop-opacity="0.12"/>
<stop offset="1" stop-color="#808080" stop-opacity="0.1"/>
</linearGradient>
<clipPath id="clip0">
<rect width="584" height="490" fill="white"/>
</clipPath>
</defs>
</svg>
