<svg width="704" height="477" viewBox="0 0 704 477" fill="none" xmlns="http://www.w3.org/2000/svg">
<g clip-path="url(#clip0)">
<path d="M82.0418 413.236C82.0418 413.236 -7.50276 372.95 23.9541 345.013C55.4111 317.077 82.0418 413.236 82.0418 413.236Z" fill="#34DE2C"/>
<path d="M80.4832 422.636C80.4832 422.636 39.3252 290.475 99.9319 296.796C160.539 303.116 80.4832 422.636 80.4832 422.636Z" fill="#B2DFFB"/>
<path d="M50.4745 410.915L52.202 433.023L52.2293 433.405C52.2277 436.857 52.4062 440.308 52.7641 443.742C55.1084 466.292 65.1853 476.569 76.9621 476.569C88.7389 476.569 98.377 466.292 100.721 443.742C101.079 440.308 101.258 436.857 101.256 433.405L101.27 433.097L101.277 433.023L103.011 410.915H50.4745Z" fill="#B2DFFB"/>
<path d="M101.277 433.023L101.27 433.097L101.256 433.405C101.258 436.857 101.079 440.308 100.721 443.742H52.7641C52.4062 440.308 52.2277 436.857 52.2294 433.405L52.202 433.023H101.277Z" fill="#D3F4FF"/>
<path d="M666.074 426.756C666.074 426.756 596.747 395.566 621.101 373.937C645.456 352.308 666.074 426.756 666.074 426.756Z" fill="#B2DFFB"/>
<path d="M664.867 434.034C664.867 434.034 633.001 331.713 679.924 336.606C726.847 341.5 664.867 434.034 664.867 434.034Z" fill="#34DE2C"/>
<path d="M641.634 424.96L642.971 442.076L642.992 442.371C642.991 445.044 643.129 447.716 643.406 450.375C645.221 467.833 653.023 475.79 662.141 475.79C671.259 475.79 678.721 467.833 680.536 450.375C680.813 447.716 680.951 445.044 680.95 442.371L680.96 442.133L680.966 442.076L682.308 424.96H641.634Z" fill="#B2DFFB"/>
<path d="M680.966 442.076L680.96 442.133L680.95 442.371C680.951 445.044 680.813 447.716 680.536 450.375H643.406C643.129 447.716 642.991 445.044 642.992 442.371L642.971 442.076H680.966Z" fill="#D3F4FF"/>
<path d="M233.39 142.276V112.208H228.606V142.276C227.234 142.819 226.098 143.811 225.392 145.082C224.686 146.354 224.454 147.826 224.737 149.246C225.02 150.666 225.799 151.945 226.941 152.865C228.084 153.786 229.518 154.289 230.998 154.289C232.478 154.289 233.913 153.786 235.055 152.865C236.197 151.945 236.977 150.666 237.259 149.246C237.542 147.826 237.311 146.354 236.605 145.082C235.899 143.811 234.762 142.819 233.39 142.276Z" fill="#B2DFFB"/>
<path d="M244.553 445.716H211.862V57.6625H199.105V445.716H166.415C162.541 445.716 158.704 446.462 155.125 447.91C151.546 449.359 148.294 451.483 145.554 454.16C142.815 456.837 140.642 460.016 139.159 463.514C137.677 467.012 136.914 470.761 136.914 474.547V474.547H274.054V474.547C274.054 470.761 273.291 467.012 271.808 463.514C270.326 460.016 268.153 456.837 265.413 454.16C262.674 451.483 259.422 449.359 255.842 447.91C252.263 446.462 248.427 445.716 244.553 445.716Z" fill="#B2DFFB"/>
<path d="M136.98 115.325H273.988L265.609 12.9816C265.303 9.45259 263.657 6.16333 260.994 3.76092C258.331 1.35851 254.845 0.0168737 251.221 -3.05176e-05H159.747C156.123 0.0168728 152.636 1.35851 149.974 3.76091C147.311 6.16331 145.664 9.45256 145.358 12.9816L136.98 115.325Z" fill="url(#paint0_linear)"/>
<path d="M327.745 294.951C326.456 294.742 325.138 294.785 323.866 295.077C322.594 295.37 321.395 295.907 320.337 296.656C319.279 297.406 318.385 298.353 317.705 299.444C317.025 300.534 316.573 301.745 316.377 303.008L312.519 327.747L325.644 331.149L335.26 308.099C335.819 306.76 336.062 305.314 335.971 303.871C335.881 302.427 335.459 301.022 334.737 299.759C334.016 298.496 333.012 297.409 331.802 296.576C330.592 295.744 329.205 295.189 327.745 294.951Z" fill="#A0616A"/>
<path d="M327.5 327.701C334.783 355.988 331.648 381.861 304.527 402.176C271.996 393.412 250.361 372.268 237.16 341.539C236.339 339.628 235.923 337.575 235.937 335.502C235.95 333.43 236.394 331.382 237.24 329.482C238.086 327.582 239.317 325.869 240.859 324.447C242.401 323.024 244.222 321.922 246.212 321.207C249.202 320.132 252.455 319.973 255.54 320.75C258.625 321.527 261.395 323.204 263.481 325.557L295.399 361.56L310.372 325.256L327.5 327.701Z" fill="#34DE2C"/>
<path d="M494.173 476.111C464.47 474.569 446.018 464.601 441.55 444.163L446.334 435.591L501.106 459.976C502.488 460.592 503.652 461.596 504.45 462.86C505.248 464.123 505.643 465.591 505.585 467.075C505.527 468.558 505.019 469.992 504.126 471.193C503.232 472.394 501.993 473.309 500.567 473.82L494.173 476.111Z" fill="#B2DFFB"/>
<path d="M471.222 476.315C455.789 475.859 440.947 476.001 426.884 476.931C424.417 477.096 421.983 476.303 420.11 474.725C418.237 473.148 417.076 470.912 416.88 468.503L416.035 458.189L404.075 439.487L414.441 429.357C431.86 446.312 450.963 460.554 473.652 469.02C474.382 469.508 474.929 470.214 475.214 471.031C475.498 471.849 475.504 472.735 475.231 473.556C474.957 474.378 474.418 475.09 473.696 475.588C472.973 476.085 472.105 476.34 471.222 476.315Z" fill="#B2DFFB"/>
<path d="M387.331 402.864C367.624 437.326 348.242 460.558 322.748 472.994C291.382 483.111 268.458 469.707 250.59 442.215L302.416 408.708L309.991 416.111L378.639 365.057C380.316 363.506 382.552 362.663 384.86 362.714C387.169 362.764 389.364 363.702 390.969 365.325L449.523 435.591L442.347 447.28L387.331 402.864Z" fill="#2F2E41"/>
<path d="M404.873 443.384L377.764 402.864L384.142 391.176L420.022 427.799L404.873 443.384Z" fill="#2F2E41"/>
<path d="M248.597 314.032C263.569 314.032 275.706 302.171 275.706 287.539C275.706 272.907 263.569 261.045 248.597 261.045C233.625 261.045 221.488 272.907 221.488 287.539C221.488 302.171 233.625 314.032 248.597 314.032Z" fill="#A0616A"/>
<path d="M255.773 336.63L225.474 326.5C229.958 319.537 231.923 311.306 231.056 303.123H255.773C254.367 315.012 254.156 326.289 255.773 336.63Z" fill="#A0616A"/>
<path d="M320.356 407.539C315.814 409.362 315.482 415.271 311.187 417.28C290.425 426.988 268.459 434.865 253.381 448.838C218.144 425.453 185.485 352.824 227.866 321.045C242.333 329.319 255.255 335.239 254.975 321.045L320.356 407.539Z" fill="#34DE2C"/>
<path opacity="0.2" d="M302.018 376.37L287.267 371.305L258.165 393.513L245.119 347.615C244.214 344.431 242.748 346.045 240.643 348.256C238.448 346.271 235.719 344.941 232.776 344.422C229.834 343.903 226.801 344.217 224.035 345.328C221.269 346.438 218.886 348.298 217.166 350.688C215.446 353.079 214.462 355.9 214.329 358.82C212.777 392.113 223.05 420.28 248.597 441.825C282.01 434.833 296.191 412.771 302.018 384.162L300.438 383.133C301.02 380.923 301.547 378.668 302.018 376.37Z" fill="black"/>
<path d="M252.245 252.687C261.187 254.684 271.364 257.513 271.935 260.142C281.134 262.407 288.077 267.834 289.494 276.106C289.613 276.821 289.569 277.553 289.367 278.249C289.165 278.946 288.809 279.591 288.324 280.139C287.839 280.687 287.237 281.124 286.561 281.42C285.884 281.716 285.15 281.863 284.409 281.851C279.406 281.788 271.897 281.32 266.938 279.296C252.533 288.367 250.115 311.96 256.405 328.019L246.506 327.132L236.264 297.832L233.648 325.98L211.058 323.061L213.968 287.167C214.862 278.706 217.808 270.577 222.561 263.452C223.055 262.737 223.595 262.053 224.178 261.405C227.615 257.611 232.039 254.797 236.981 253.262C241.922 251.727 247.197 251.528 252.245 252.687Z" fill="#2F2E41"/>
<path d="M303.211 341.633L328.022 370.14L365.238 327.215L340.092 297.398L303.211 341.633Z" fill="#3F3D56"/>
<path d="M358.867 328.199L329.363 304.607C331.039 300.675 339.086 301.985 339.086 301.985L362.181 324.868C362.986 325.665 363.675 326.565 364.232 327.543L358.867 328.199Z" fill="#C8DDEA"/>
<path d="M360.208 326.56L326.68 301.002L289.464 356.05L324.501 379.151C327.854 380.461 331.207 378.168 331.207 378.168L365.405 327.052L360.208 326.56Z" fill="#2F2E41"/>
<path d="M330.861 308.979L330.544 309.411L352.004 324.481L352.321 324.05L330.861 308.979Z" fill="#34DE2C"/>
<path d="M352.605 329.69L324.442 371.304L324.895 371.597L353.059 329.983L352.605 329.69Z" fill="#34DE2C"/>
<path d="M298.681 356.161L298.359 356.588L321.152 372.978L321.474 372.551L298.681 356.161Z" fill="#34DE2C"/>
<path d="M326.793 309.698L297.623 350.656L298.069 350.959L327.238 310.001L326.793 309.698Z" fill="#34DE2C"/>
<path d="M335.803 301.66L335.576 301.902L362.107 325.698L362.333 325.456L335.803 301.66Z" fill="#B3B3B3"/>
<path d="M333.593 301.864L333.371 302.11L361.098 326.033L361.32 325.787L333.593 301.864Z" fill="#B3B3B3"/>
<path d="M331.858 302.341L331.643 302.593L360.427 326.041L360.642 325.789L331.858 302.341Z" fill="#B3B3B3"/>
<path d="M316.603 350.002C315.531 349.273 314.321 348.759 313.044 348.491C311.766 348.222 310.447 348.205 309.163 348.439C307.878 348.673 306.655 349.154 305.562 349.854C304.47 350.555 303.53 351.46 302.799 352.518L288.463 373.253L298.828 381.825L317.626 365.028C318.719 364.052 319.572 362.849 320.124 361.506C320.675 360.164 320.91 358.718 320.812 357.275C320.714 355.831 320.285 354.428 319.556 353.169C318.828 351.91 317.818 350.828 316.603 350.002Z" fill="#A0616A"/>
<path d="M302.018 379.487C296.191 408.095 282.011 430.158 248.597 437.15C223.05 415.604 212.777 387.438 214.329 354.144C214.425 352.074 214.95 350.045 215.871 348.178C216.793 346.312 218.091 344.647 219.689 343.285C221.287 341.923 223.15 340.891 225.167 340.252C227.184 339.613 229.313 339.38 231.425 339.567C234.597 339.849 237.607 341.068 240.053 343.062C242.499 345.057 244.266 347.732 245.119 350.731L258.165 396.63L287.616 370.104L302.018 379.487Z" fill="#34DE2C"/>
<path d="M703.685 477H0V475.3H704L703.685 477Z" fill="#3F3D56"/>
<path d="M367.797 71.3043C367.374 71.3047 366.969 71.4691 366.67 71.7612C366.371 72.0534 366.203 72.4496 366.202 72.8628V133.642V194.422C366.203 194.835 366.371 195.231 366.67 195.523C366.969 195.815 367.374 195.98 367.797 195.98H471.449C471.872 195.98 472.278 195.815 472.576 195.523C472.875 195.231 473.044 194.835 473.044 194.422V72.8628C473.044 72.4496 472.875 72.0535 472.576 71.7613C472.278 71.4691 471.872 71.3048 471.449 71.3043H367.797Z" fill="#B2DFFB"/>
<path d="M378.561 183.902H460.686V83.3823H378.561V183.902Z" fill="#E5F5FF"/>
<path d="M540.365 103.252C540.112 103.253 539.87 103.351 539.692 103.525C539.513 103.7 539.413 103.936 539.413 104.183V164.66C539.413 164.907 539.513 165.143 539.692 165.317C539.87 165.492 540.112 165.59 540.365 165.59H614.623C614.875 165.59 615.117 165.492 615.296 165.317C615.474 165.143 615.575 164.907 615.575 164.66V104.183C615.575 103.936 615.474 103.7 615.296 103.525C615.117 103.351 614.875 103.253 614.623 103.253L540.365 103.252Z" fill="#B2DFFB"/>
<path d="M546.791 110.463V158.38H608.197V110.463H546.791Z" fill="#E5F5FF"/>
<path d="M434.124 79.8758H405.123C404.422 79.8785 403.733 79.7001 403.125 79.3588C402.517 79.0175 402.013 78.5253 401.662 77.9321C401.312 77.3389 401.128 76.6658 401.129 75.9808C401.131 75.2959 401.317 74.6234 401.67 74.0316L416.171 49.4861C416.182 49.4659 416.195 49.4457 416.207 49.4256C416.524 48.9035 416.963 48.462 417.487 48.1372C418.012 47.8124 418.608 47.6135 419.226 47.5566L419.247 47.5547C419.371 47.5437 419.497 47.538 419.623 47.538C420.324 47.5339 421.013 47.7122 421.62 48.0546C422.227 48.397 422.729 48.891 423.076 49.4861L437.576 74.0316C437.926 74.6239 438.11 75.2957 438.11 75.9796C438.11 76.6635 437.926 77.3353 437.576 77.9276C437.226 78.5199 436.723 79.0117 436.117 79.3537C435.511 79.6956 434.824 79.8757 434.124 79.8758ZM404.322 75.9759C404.323 76.114 404.361 76.2496 404.432 76.3693C404.501 76.4887 404.601 76.5878 404.723 76.6563C404.844 76.7249 404.982 76.7603 405.123 76.7589H434.124C434.264 76.7603 434.402 76.7249 434.524 76.6564C434.645 76.5879 434.746 76.4887 434.814 76.3693C434.885 76.2497 434.923 76.1143 434.924 75.9762C434.923 75.8404 434.885 75.7073 434.814 75.5904L420.314 51.0445C420.244 50.926 420.143 50.8277 420.022 50.7593C419.901 50.6909 419.763 50.6549 419.623 50.6549C419.483 50.6549 419.346 50.6909 419.224 50.7593C419.103 50.8277 419.003 50.926 418.933 51.0445L404.432 75.59C404.361 75.7068 404.323 75.84 404.322 75.9759Z" fill="#B2DFFB"/>
<path d="M419.623 54.9406C420.944 54.9406 422.015 53.894 422.015 52.6029C422.015 51.3119 420.944 50.2653 419.623 50.2653C418.302 50.2653 417.231 51.3119 417.231 52.6029C417.231 53.894 418.302 54.9406 419.623 54.9406Z" fill="#C8DDEA"/>
<path d="M585.355 105.201H569.632C569.252 105.202 568.878 105.105 568.549 104.92C568.219 104.735 567.946 104.468 567.756 104.147C567.566 103.825 567.466 103.46 567.467 103.089C567.468 102.717 567.569 102.353 567.76 102.032L575.622 88.7242L575.641 88.6914C575.813 88.4083 576.051 88.169 576.336 87.9929C576.62 87.8168 576.943 87.7089 577.278 87.6781L577.29 87.6771C577.357 87.6711 577.425 87.668 577.494 87.668C577.873 87.6658 578.247 87.7625 578.576 87.9481C578.905 88.1337 579.177 88.4016 579.365 88.7242L587.227 102.032C587.417 102.353 587.517 102.717 587.517 103.088C587.517 103.459 587.417 103.823 587.227 104.144C587.037 104.465 586.765 104.732 586.436 104.917C586.107 105.103 585.735 105.2 585.355 105.201ZM569.198 103.086C569.199 103.161 569.219 103.235 569.257 103.299C569.295 103.364 569.349 103.418 569.415 103.455C569.481 103.492 569.556 103.511 569.632 103.511H585.355C585.431 103.511 585.506 103.492 585.572 103.455C585.638 103.418 585.692 103.364 585.73 103.299C585.768 103.235 585.789 103.161 585.789 103.086C585.789 103.013 585.768 102.94 585.73 102.877L577.868 89.5691C577.83 89.5049 577.776 89.4516 577.71 89.4145C577.644 89.3774 577.57 89.3579 577.494 89.3579C577.418 89.3579 577.343 89.3774 577.277 89.4145C577.212 89.4516 577.157 89.5049 577.119 89.5691L569.257 102.877C569.219 102.94 569.198 103.012 569.198 103.086Z" fill="#B2DFFB"/>
<path d="M577.494 91.6815C578.21 91.6815 578.791 91.114 578.791 90.4141C578.791 89.7141 578.21 89.1466 577.494 89.1466C576.777 89.1466 576.197 89.7141 576.197 90.4141C576.197 91.114 576.777 91.6815 577.494 91.6815Z" fill="#C8DDEA"/>
<path d="M379.5 145.627C380.646 143.056 382.316 140.74 384.408 138.821C386.501 136.901 388.971 135.419 391.669 134.463C394.475 133.405 397.481 132.951 400.483 133.134C403.485 133.316 406.41 134.131 409.06 135.521C415.282 138.748 420.257 143.822 426.576 146.91C432.72 149.885 439.481 151.442 446.338 151.46C454.102 151.52 461.744 149.581 468.499 145.839C468.761 145.677 468.949 145.422 469.022 145.127C469.096 144.832 469.05 144.521 468.893 144.259C468.736 143.998 468.482 143.805 468.183 143.723C467.884 143.642 467.564 143.676 467.291 143.82C461.17 147.173 454.295 148.993 447.279 149.119C440.264 149.245 433.325 147.672 427.082 144.541C420.742 141.293 415.719 136.047 409.261 133.003C406.519 131.703 403.541 130.948 400.498 130.781C397.456 130.614 394.409 131.039 391.536 132.031C388.342 133.078 385.412 134.777 382.939 137.013C380.467 139.25 378.508 141.974 377.194 145.006C376.613 146.398 378.926 147.004 379.5 145.627Z" fill="#B2DFFB"/>
<path d="M377.61 167.479C390.885 164.583 404.654 164.629 417.907 167.615C429.681 170.284 441.835 175.084 453.974 171.504C459.397 169.905 464.367 166.705 467.153 161.782C467.898 160.464 465.834 159.284 465.088 160.602C459.842 169.872 447.552 171.436 437.846 169.915C431.36 168.899 425.11 166.861 418.726 165.403C405.002 162.258 390.726 162.197 376.975 165.225C375.473 165.552 376.108 167.807 377.61 167.479Z" fill="#B2DFFB"/>
<path d="M376.748 115.225C389.476 113.11 402.512 113.563 415.054 116.557C426.77 119.363 438.223 125.772 450.612 124.665C456.348 124.153 462.026 122.091 465.923 117.803C466.942 116.681 465.256 115.022 464.231 116.15C460.87 119.849 456.029 121.766 451.061 122.284C445.335 122.882 439.708 121.722 434.258 120.075C428.225 118.251 422.365 115.941 416.231 114.434C403.11 111.214 389.443 110.716 376.113 112.971C374.598 113.224 375.24 115.477 376.748 115.225Z" fill="#B2DFFB"/>
<path d="M557.484 109.674C562.983 115.177 566.777 122.09 568.425 129.612C569.693 135.595 569.55 141.783 568.007 147.704C566.464 153.626 563.562 159.127 559.521 163.789C558.53 164.93 560.214 166.591 561.212 165.442C566.718 159.103 570.234 151.344 571.337 143.099C572.141 136.735 571.465 130.275 569.359 124.201C567.254 118.128 563.772 112.597 559.175 108.021C558.096 106.945 556.405 108.598 557.484 109.674Z" fill="#B2DFFB"/>
<path d="M593.372 104.685C586.041 109.94 581.938 118.421 581.36 127.193C580.759 136.321 584.321 145.136 590.057 152.222C593.403 156.303 597.401 159.83 601.896 162.667C603.188 163.493 604.388 161.47 603.103 160.648C595.78 155.966 589.514 149.314 586.186 141.331C584.564 137.539 583.723 133.472 583.711 129.362C583.699 125.252 584.517 121.18 586.117 117.379C587.909 113.144 590.831 109.458 594.579 106.704C595.808 105.823 594.616 103.794 593.372 104.685Z" fill="#B2DFFB"/>
<path d="M425.204 128.188C431.369 128.188 436.367 123.303 436.367 117.278C436.367 111.254 431.369 106.369 425.204 106.369C419.04 106.369 414.042 111.254 414.042 117.278C414.042 123.303 419.04 128.188 425.204 128.188Z" fill="#B2DFFB"/>
</g>
<defs>
<linearGradient id="paint0_linear" x1="115" y1="70" x2="311" y2="70" gradientUnits="userSpaceOnUse">
<stop stop-color="#34DE2C"/>
<stop offset="1" stop-color="#34DE2C" stop-opacity="0"/>
</linearGradient>
<clipPath id="clip0">
<rect width="704" height="477" fill="white"/>
</clipPath>
</defs>
</svg>
